# Blender v2.81 (sub 16) OBJ File: 'complex_maze_x5_1mx2m_ 4.blend'
# www.blender.org
mtllib _dcule_000.mtl
o _dcue_000_Plane.256
v 0.000000 0.000000 0.000008
v -0.000007 9.999999 20.000010
v 3.809520 6.666668 6.666675
v 3.809524 0.000002 6.666675
v 7.619046 3.333338 6.666675
v -0.000002 3.333333 6.666675
v -3.809523 -0.000002 40.000011
v -0.000002 3.333333 20.000010
v 3.809520 6.666668 20.000010
v -3.809528 6.666664 20.000010
v -3.809520 -6.666668 66.666679
v -11.428572 -0.000007 40.000011
v -7.619051 3.333328 40.000011
v -7.619046 -3.333338 40.000011
v 7.619052 -6.666661 80.000015
v 0.000002 -3.333333 66.666679
v 0.000007 -9.999999 66.666679
v 3.809528 -6.666664 66.666679
v -1.904763 0.833332 1.666674
v 0.952382 -1.666666 1.666674
v 3.809524 0.833336 1.666674
v 0.952379 3.333334 1.666674
v 0.952377 5.833333 13.333343
v 4.761904 2.500002 13.333343
v 8.571425 5.833339 13.333343
v 4.761899 9.166669 13.333343
v 0.952377 5.833333 6.666675
v 6.666663 5.833337 6.666675
v 6.666667 0.833338 6.666675
v 0.952380 0.833334 6.666675
v -9.523813 4.999993 28.333344
v -5.714287 1.666663 28.333344
v -1.904764 4.999998 28.333344
v -5.714291 8.333328 28.333344
v -2.857149 9.166664 20.000010
v 2.857137 9.166668 20.000010
v 2.857141 4.166668 20.000010
v -2.857146 4.166664 20.000010
v -9.523808 -5.000006 53.333347
v -5.714281 -8.333336 53.333347
v -1.904758 -5.000001 53.333347
v -5.714285 -1.666669 53.333347
v -4.761907 2.499997 40.000011
v -4.761904 -2.500003 40.000011
v -10.476190 -2.500007 40.000011
v -10.476193 2.499993 40.000011
v 2.857147 -6.666664 76.666687
v 5.714292 -9.166662 76.666687
v 8.571434 -6.666660 76.666687
v 5.714289 -4.166662 76.666687
v -2.857137 -9.166668 66.666679
v -2.857141 -4.166668 66.666679
v 2.857146 -4.166664 66.666679
v 2.857149 -9.166664 66.666679
v -0.423280 -0.370371 2.962971
v 3.809524 -0.370368 2.962971
v -0.423283 3.333333 2.962971
v 3.809522 3.333335 2.962971
v 1.904757 8.333333 13.333343
v 1.904760 3.333334 13.333343
v 7.619046 3.333338 13.333343
v 7.619043 8.333337 13.333343
v -8.571434 7.499993 28.333344
v -8.571431 2.499994 28.333344
v -2.857144 2.499998 28.333344
v -2.857148 7.499997 28.333344
v -8.571427 -2.500005 53.333347
v -8.571424 -7.500005 53.333347
v -2.857137 -7.500001 53.333347
v -2.857141 -2.500001 53.333347
v 2.116405 -4.814811 74.074097
v 2.116408 -8.518518 74.074097
v 6.349214 -8.518516 74.074097
v 6.349211 -4.814808 74.074097
vn 0.2791 0.9569 0.0797
vn 0.2614 0.8962 0.3585
vn 0.2119 0.7264 -0.6538
vn 0.2600 0.8913 -0.3714
vn -0.2585 -0.8864 0.3841
vn -0.2600 -0.8913 0.3714
vn 0.7658 -0.4713 -0.4376
vn 0.9345 -0.3560 0.0000
vn -0.9292 0.3540 0.1062
vn -0.9345 0.3560 -0.0000
vn 0.9029 -0.3439 -0.2580
vn -0.2791 -0.9569 -0.0797
vn -0.2614 -0.8962 -0.3585
vn 0.7612 -0.2900 0.5800
vn 0.8120 -0.3093 0.4949
vn -0.7612 0.2900 -0.5800
vn -0.8120 0.3093 -0.4949
vn -0.8538 0.3252 0.4066
vn -0.7605 0.4056 0.5070
vn -0.9029 0.3439 0.2580
vn 0.2547 0.8731 0.4158
vn 0.2667 0.9143 0.3048
vn -0.2547 -0.8731 -0.4158
vn -0.2667 -0.9143 -0.3048
vn 0.2800 0.9600 0.0000
vn 0.3744 0.9170 -0.1375
vn -0.2800 -0.9600 0.0000
vn -0.3628 -0.8884 0.2813
vn 0.8538 -0.3252 -0.4066
vn 0.8135 -0.4338 -0.3874
vn 0.2904 0.7113 -0.6401
vn -0.3348 -0.8198 0.4646
vn 0.8243 -0.3140 -0.4710
vn -0.8779 0.4682 0.1003
vn -0.7804 0.2973 0.5500
vn 0.2797 0.9589 -0.0479
vn -0.2702 -0.9263 0.2625
vn 0.8648 -0.3295 -0.3789
vn -0.6576 -0.7515 0.0537
vn -0.5398 0.6169 -0.5728
vn 0.3736 0.4270 -0.8235
vn 0.5398 -0.6169 -0.5728
vn -0.2667 0.9143 -0.3048
vn -0.2800 0.9600 -0.0000
vn -0.3883 0.8242 -0.4121
vn 0.3764 -0.9219 0.0922
vn 0.2667 -0.9143 0.3048
vn 0.6534 0.3485 -0.6721
vn 0.9029 0.3439 -0.2580
vn -0.7661 -0.4086 0.4961
vn -0.9029 -0.3439 0.2580
vn 0.8938 0.3405 0.2919
vn 0.9345 0.3560 0.0000
vn 0.2800 -0.9600 0.0000
vn 0.7932 0.3022 0.5288
vn 0.7612 0.2900 0.5800
vn -0.7932 -0.3022 -0.5288
vn -0.7612 -0.2900 -0.5800
vn -0.8804 -0.3354 0.3354
vn -0.7804 -0.2973 0.5500
vn -0.8938 -0.3405 -0.2919
vn -0.9345 -0.3560 -0.0000
vn -0.2630 0.9016 0.3435
vn -0.2600 0.8913 0.3714
vn 0.2630 -0.9016 -0.3435
vn 0.2600 -0.8913 -0.3714
vn -0.5330 -0.6091 0.5873
vn 0.6583 -0.7523 -0.0269
vn 0.6583 0.7523 -0.0269
vn -0.5330 0.6091 0.5873
vn -0.2723 0.9335 0.2334
vn -0.2702 0.9263 0.2625
vn 0.2723 -0.9335 -0.2334
vn 0.2797 -0.9589 -0.0479
vn 0.8804 0.3354 -0.3354
vn 0.8648 0.3295 -0.3789
vn -0.6163 -0.7044 -0.3522
vn -0.4366 0.4990 -0.7485
vn 0.3091 0.3532 -0.8830
vn 0.4366 -0.4990 -0.7485
vn -0.2524 0.8655 -0.4327
vn 0.2787 -0.9556 0.0956
vn 0.6737 0.2567 -0.6930
vn -0.8481 -0.3231 0.4200
vn -0.7605 -0.4056 0.5070
vn -0.4796 -0.5482 0.6852
vn 0.6471 -0.7396 0.1849
vn 0.6471 0.7396 0.1849
vn -0.4796 0.5482 0.6852
vn -0.3628 0.8884 0.2813
vn 0.3744 -0.9170 -0.1375
vn 0.8135 0.4338 -0.3874
usemtl _dcue_000_1
s off
f 36//1 62//1 26//1
f 2//2 34//2 66//2
f 3//3 28//3 58//3
f 26//4 62//4 28//4
f 4//5 30//5 55//5
f 24//6 60//6 30//6
f 29//7 56//7 21//7
f 5//8 25//8 61//8
f 6//9 27//9 57//9
f 23//10 59//10 27//10
f 7//8 44//8 65//8
f 41//11 69//11 44//11
f 8//12 38//12 60//12
f 32//13 64//13 38//13
f 9//14 37//14 61//14
f 33//15 65//15 37//15
f 35//16 59//16 23//16
f 10//17 31//17 63//17
f 52//18 67//18 39//18
f 11//19 47//19 71//19
f 46//10 63//10 31//10
f 12//20 39//20 67//20
f 43//21 66//21 34//21
f 42//22 70//22 43//22
f 45//23 64//23 32//23
f 14//24 40//24 68//24
f 16//25 53//25 70//25
f 16//26 50//26 74//26
f 51//27 68//27 40//27
f 17//28 48//28 72//28
f 54//29 69//29 41//29
f 18//30 49//30 73//30
f 2//1 36//1 26//1
f 36//2 2//2 66//2
f 22//31 3//31 58//31
f 3//4 26//4 28//4
f 20//32 4//32 55//32
f 4//6 24//6 30//6
f 5//33 29//33 21//33
f 29//8 5//8 61//8
f 19//34 6//34 57//34
f 6//10 23//10 27//10
f 33//8 7//8 65//8
f 7//11 41//11 44//11
f 24//12 8//12 60//12
f 8//13 32//13 38//13
f 25//14 9//14 61//14
f 9//15 33//15 37//15
f 10//16 35//16 23//16
f 35//17 10//17 63//17
f 11//18 52//18 39//18
f 52//35 11//35 71//35
f 12//10 46//10 31//10
f 46//20 12//20 67//20
f 13//21 43//21 34//21
f 13//22 42//22 43//22
f 14//23 45//23 32//23
f 45//24 14//24 68//24
f 42//25 16//25 70//25
f 53//36 16//36 74//36
f 17//27 51//27 40//27
f 51//37 17//37 72//37
f 18//29 54//29 41//29
f 54//38 18//38 73//38
usemtl _dcue_000_2
f 20//39 55//39 19//39
f 19//40 57//40 22//40
f 22//41 58//41 21//41
f 21//42 56//42 20//42
f 2//43 26//43 59//43
f 35//44 63//44 34//44
f 22//45 57//45 27//45
f 3//43 27//43 59//43
f 4//46 20//46 56//46
f 29//47 61//47 24//47
f 5//48 21//48 58//48
f 28//49 62//49 25//49
f 6//50 19//50 55//50
f 6//51 30//51 60//51
f 33//52 66//52 43//52
f 7//53 43//53 70//53
f 24//47 61//47 37//47
f 8//54 37//54 65//54
f 9//55 25//55 62//55
f 36//56 66//56 33//56
f 23//57 60//57 38//57
f 38//58 64//58 31//58
f 11//59 39//59 68//59
f 11//60 51//60 72//60
f 12//61 31//61 64//61
f 45//62 68//62 39//62
f 13//63 34//63 63//63
f 46//64 67//64 42//64
f 32//65 65//65 44//65
f 44//66 69//66 40//66
f 47//67 72//67 48//67
f 48//68 73//68 49//68
f 49//69 74//69 50//69
f 50//70 71//70 47//70
f 42//71 67//71 52//71
f 16//72 52//72 71//72
f 17//73 40//73 69//73
f 17//74 54//74 73//74
f 41//75 70//75 53//75
f 18//76 53//76 74//76
f 1//77 20//77 19//77
f 1//78 19//78 22//78
f 1//79 22//79 21//79
f 1//80 21//80 20//80
f 35//43 2//43 59//43
f 2//44 35//44 34//44
f 3//81 22//81 27//81
f 26//43 3//43 59//43
f 29//82 4//82 56//82
f 4//47 29//47 24//47
f 28//83 5//83 58//83
f 5//49 28//49 25//49
f 30//84 6//84 55//84
f 23//51 6//51 60//51
f 7//52 33//52 43//52
f 41//53 7//53 70//53
f 8//47 24//47 37//47
f 32//54 8//54 65//54
f 36//55 9//55 62//55
f 9//56 36//56 33//56
f 10//57 23//57 38//57
f 10//58 38//58 31//58
f 51//59 11//59 68//59
f 47//85 11//85 72//85
f 45//61 12//61 64//61
f 12//62 45//62 39//62
f 46//63 13//63 63//63
f 13//64 46//64 42//64
f 14//65 32//65 44//65
f 14//66 44//66 40//66
f 15//86 47//86 48//86
f 15//87 48//87 49//87
f 15//88 49//88 50//88
f 15//89 50//89 47//89
f 16//71 42//71 52//71
f 50//90 16//90 71//90
f 54//73 17//73 69//73
f 48//91 17//91 73//91
f 18//75 41//75 53//75
f 49//92 18//92 74//92
