# Blender v2.79 (sub 0) OBJ File: 'complex_maze3.blend'
# www.blender.org
mtllib complex_maze3_cue1.mtl
o _dcue_000_Plane.256
v -52.816513 0.000000 0.000000
v -52.816513 -9.999999 -20.000002
v -49.006989 -6.666666 -6.666667
v -49.006989 0.000000 -6.666667
v -45.197464 -3.333333 -6.666667
v -52.816513 -3.333333 -6.666667
v -56.626038 0.000000 -40.000004
v -52.816513 -3.333333 -20.000002
v -49.006989 -6.666666 -20.000002
v -56.626038 -6.666666 -20.000002
v -56.626038 6.666666 -66.666672
v -64.245087 0.000000 -40.000004
v -60.435562 -3.333333 -40.000004
v -60.435562 3.333333 -40.000004
v -45.197464 6.666666 -80.000008
v -52.816513 3.333333 -66.666672
v -52.816513 9.999999 -66.666672
v -49.006989 6.666666 -66.666672
v -54.721275 -0.833333 -1.666667
v -51.864132 1.666667 -1.666667
v -49.006989 -0.833333 -1.666667
v -51.864132 -3.333333 -1.666667
v -51.864132 -5.833333 -13.333335
v -48.054607 -2.499999 -13.333335
v -44.245083 -5.833333 -13.333335
v -48.054607 -9.166666 -13.333335
v -51.864132 -5.833333 -6.666667
v -46.149845 -5.833333 -6.666667
v -46.149845 -0.833333 -6.666667
v -51.864132 -0.833333 -6.666667
v -62.340324 -5.000000 -28.333336
v -58.530800 -1.666666 -28.333336
v -54.721275 -5.000000 -28.333336
v -58.530800 -8.333332 -28.333336
v -55.673656 -9.166666 -20.000002
v -49.959370 -9.166666 -20.000002
v -49.959370 -4.166666 -20.000002
v -55.673656 -4.166666 -20.000002
v -62.340324 5.000000 -53.333340
v -58.530800 8.333332 -53.333340
v -54.721275 5.000000 -53.333340
v -58.530800 1.666666 -53.333340
v -57.578419 -2.500000 -40.000004
v -57.578419 2.500000 -40.000004
v -63.292706 2.500000 -40.000004
v -63.292706 -2.500000 -40.000004
v -49.959370 6.666666 -76.666679
v -47.102226 9.166666 -76.666679
v -44.245083 6.666666 -76.666679
v -47.102226 4.166666 -76.666679
v -55.673656 9.166666 -66.666672
v -55.673656 4.166666 -66.666672
v -49.959370 4.166666 -66.666672
v -49.959370 9.166666 -66.666672
v -53.239792 0.370370 -2.962963
v -49.006989 0.370370 -2.962963
v -53.239792 -3.333333 -2.962963
v -49.006989 -3.333333 -2.962963
v -50.911751 -8.333332 -13.333335
v -50.911751 -3.333333 -13.333335
v -45.197464 -3.333333 -13.333335
v -45.197464 -8.333332 -13.333335
v -61.387943 -7.499999 -28.333336
v -61.387943 -2.500000 -28.333336
v -55.673656 -2.500000 -28.333336
v -55.673656 -7.499999 -28.333336
v -61.387943 2.499999 -53.333340
v -61.387943 7.499999 -53.333340
v -55.673656 7.499999 -53.333340
v -55.673656 2.499999 -53.333340
v -50.700111 4.814813 -74.074089
v -50.700111 8.518519 -74.074089
v -46.467304 8.518519 -74.074089
v -46.467304 4.814813 -74.074089
vn -0.6576 0.7515 -0.0537
vn -0.5398 -0.6169 0.5728
vn 0.3736 -0.4270 0.8235
vn 0.5398 0.6169 0.5728
vn -0.2667 -0.9143 0.3048
vn -0.2800 -0.9600 0.0000
vn -0.3883 -0.8242 0.4121
vn 0.3764 0.9219 -0.0922
vn 0.2667 0.9143 -0.3048
vn 0.6534 -0.3485 0.6721
vn 0.9029 -0.3439 0.2580
vn -0.7661 0.4086 -0.4961
vn -0.9029 0.3439 -0.2580
vn 0.8938 -0.3405 -0.2919
vn 0.9345 -0.3560 0.0000
vn 0.2800 0.9600 0.0000
vn 0.7932 -0.3022 -0.5288
vn 0.7613 -0.2900 -0.5800
vn -0.7932 0.3022 0.5288
vn -0.7612 0.2900 0.5800
vn -0.8804 0.3354 -0.3354
vn -0.7804 0.2973 -0.5500
vn -0.8938 0.3405 0.2919
vn -0.9345 0.3560 -0.0000
vn -0.2630 -0.9016 -0.3435
vn -0.2600 -0.8913 -0.3714
vn 0.2630 0.9016 0.3435
vn 0.2600 0.8913 0.3714
vn -0.5330 0.6091 -0.5873
vn 0.6583 0.7523 0.0269
vn 0.6583 -0.7523 0.0269
vn -0.5330 -0.6091 -0.5873
vn -0.2723 -0.9335 -0.2334
vn -0.2702 -0.9263 -0.2625
vn 0.2723 0.9335 0.2334
vn 0.2797 0.9589 0.0479
vn 0.8804 -0.3354 0.3354
vn 0.8648 -0.3295 0.3789
vn -0.6163 0.7044 0.3522
vn -0.4366 -0.4990 0.7485
vn 0.3091 -0.3532 0.8830
vn 0.4366 0.4990 0.7485
vn -0.2524 -0.8655 0.4327
vn 0.2787 0.9556 -0.0956
vn 0.6737 -0.2567 0.6930
vn -0.8481 0.3231 -0.4200
vn 0.7612 -0.2900 -0.5800
vn -0.7605 0.4056 -0.5070
vn -0.4796 0.5481 -0.6852
vn 0.6472 0.7396 -0.1849
vn 0.6472 -0.7396 -0.1849
vn -0.4796 -0.5481 -0.6852
vn -0.3628 -0.8884 -0.2813
vn 0.3744 0.9170 0.1375
vn 0.8135 -0.4338 0.3874
vn 0.2791 -0.9569 -0.0797
vn 0.2614 -0.8962 -0.3585
vn 0.2119 -0.7264 0.6538
vn 0.2600 -0.8913 0.3714
vn -0.2585 0.8864 -0.3841
vn -0.2600 0.8913 -0.3714
vn 0.7658 0.4713 0.4376
vn 0.9345 0.3560 0.0000
vn -0.9292 -0.3540 -0.1062
vn -0.9345 -0.3560 0.0000
vn 0.9029 0.3439 0.2580
vn -0.2791 0.9569 0.0797
vn -0.2614 0.8962 0.3585
vn 0.7612 0.2900 -0.5800
vn 0.8120 0.3093 -0.4949
vn -0.7612 -0.2900 0.5800
vn -0.8120 -0.3093 0.4949
vn -0.8538 -0.3252 -0.4066
vn -0.7605 -0.4056 -0.5070
vn -0.9029 -0.3439 -0.2580
vn 0.2547 -0.8731 -0.4158
vn 0.2667 -0.9143 -0.3048
vn -0.2547 0.8731 0.4158
vn -0.2667 0.9143 0.3048
vn 0.2800 -0.9600 0.0000
vn 0.3744 -0.9170 0.1375
vn -0.2800 0.9600 -0.0000
vn -0.3628 0.8884 -0.2813
vn 0.8538 0.3252 0.4066
vn 0.8135 0.4338 0.3874
vn 0.2904 -0.7113 0.6401
vn -0.3348 0.8198 -0.4646
vn 0.8243 0.3140 0.4710
vn -0.8779 -0.4682 -0.1003
vn -0.7804 -0.2973 -0.5500
vn 0.2797 -0.9589 0.0479
vn -0.2702 0.9263 -0.2625
vn 0.8648 0.3295 0.3789
usemtl Material_010
s off
f 20//1 55//1 19//1
f 19//2 57//2 22//2
f 22//3 58//3 21//3
f 21//4 56//4 20//4
f 2//5 26//5 59//5
f 35//6 63//6 34//6
f 22//7 57//7 27//7
f 3//5 27//5 59//5
f 4//8 20//8 56//8
f 29//9 61//9 24//9
f 5//10 21//10 58//10
f 28//11 62//11 25//11
f 6//12 19//12 55//12
f 6//13 30//13 60//13
f 33//14 66//14 43//14
f 7//15 43//15 70//15
f 24//9 61//9 37//9
f 8//16 37//16 65//16
f 9//17 25//17 62//17
f 36//18 66//18 33//18
f 23//19 60//19 38//19
f 38//20 64//20 31//20
f 11//21 39//21 68//21
f 11//22 51//22 72//22
f 12//23 31//23 64//23
f 45//24 68//24 39//24
f 13//25 34//25 63//25
f 46//26 67//26 42//26
f 32//27 65//27 44//27
f 44//28 69//28 40//28
f 47//29 72//29 48//29
f 48//30 73//30 49//30
f 49//31 74//31 50//31
f 50//32 71//32 47//32
f 42//33 67//33 52//33
f 16//34 52//34 71//34
f 17//35 40//35 69//35
f 17//36 54//36 73//36
f 41//37 70//37 53//37
f 18//38 53//38 74//38
f 1//39 20//39 19//39
f 1//40 19//40 22//40
f 1//41 22//41 21//41
f 1//42 21//42 20//42
f 35//5 2//5 59//5
f 2//6 35//6 34//6
f 3//43 22//43 27//43
f 26//5 3//5 59//5
f 29//44 4//44 56//44
f 4//9 29//9 24//9
f 28//45 5//45 58//45
f 5//11 28//11 25//11
f 30//46 6//46 55//46
f 23//13 6//13 60//13
f 7//14 33//14 43//14
f 41//15 7//15 70//15
f 8//9 24//9 37//9
f 32//16 8//16 65//16
f 36//17 9//17 62//17
f 9//47 36//47 33//47
f 10//19 23//19 38//19
f 10//20 38//20 31//20
f 51//21 11//21 68//21
f 47//48 11//48 72//48
f 45//23 12//23 64//23
f 12//24 45//24 39//24
f 46//25 13//25 63//25
f 13//26 46//26 42//26
f 14//27 32//27 44//27
f 14//28 44//28 40//28
f 15//49 47//49 48//49
f 15//50 48//50 49//50
f 15//51 49//51 50//51
f 15//52 50//52 47//52
f 16//33 42//33 52//33
f 50//53 16//53 71//53
f 54//35 17//35 69//35
f 48//54 17//54 73//54
f 18//37 41//37 53//37
f 49//55 18//55 74//55
usemtl Material_001_002
f 36//56 62//56 26//56
f 2//57 34//57 66//57
f 3//58 28//58 58//58
f 26//59 62//59 28//59
f 4//60 30//60 55//60
f 24//61 60//61 30//61
f 29//62 56//62 21//62
f 5//63 25//63 61//63
f 6//64 27//64 57//64
f 23//65 59//65 27//65
f 7//63 44//63 65//63
f 41//66 69//66 44//66
f 8//67 38//67 60//67
f 32//68 64//68 38//68
f 9//69 37//69 61//69
f 33//70 65//70 37//70
f 35//71 59//71 23//71
f 10//72 31//72 63//72
f 52//73 67//73 39//73
f 11//74 47//74 71//74
f 46//65 63//65 31//65
f 12//75 39//75 67//75
f 43//76 66//76 34//76
f 42//77 70//77 43//77
f 45//78 64//78 32//78
f 14//79 40//79 68//79
f 16//80 53//80 70//80
f 16//81 50//81 74//81
f 51//82 68//82 40//82
f 17//83 48//83 72//83
f 54//84 69//84 41//84
f 18//85 49//85 73//85
f 2//56 36//56 26//56
f 36//57 2//57 66//57
f 22//86 3//86 58//86
f 3//59 26//59 28//59
f 20//87 4//87 55//87
f 4//61 24//61 30//61
f 5//88 29//88 21//88
f 29//63 5//63 61//63
f 19//89 6//89 57//89
f 6//65 23//65 27//65
f 33//63 7//63 65//63
f 7//66 41//66 44//66
f 24//67 8//67 60//67
f 8//68 32//68 38//68
f 25//69 9//69 61//69
f 9//70 33//70 37//70
f 10//71 35//71 23//71
f 35//72 10//72 63//72
f 11//73 52//73 39//73
f 52//90 11//90 71//90
f 12//65 46//65 31//65
f 46//75 12//75 67//75
f 13//76 43//76 34//76
f 13//77 42//77 43//77
f 14//78 45//78 32//78
f 45//79 14//79 68//79
f 42//80 16//80 70//80
f 53//91 16//91 74//91
f 17//82 51//82 40//82
f 51//92 17//92 72//92
f 18//84 54//84 41//84
f 54//93 18//93 73//93
