# Blender v2.81 (sub 16) OBJ File: 'rectangular_1mx2m.blend'
# www.blender.org
mtllib rec_cue_0.mtl
o _dcue_000_Plane.256
v 0.000000 0.000000 -0.000008
v 0.000007 9.999999 -20.000010
v -3.809520 6.666668 -6.666675
v -3.809524 0.000002 -6.666675
v -7.619046 3.333338 -6.666675
v 0.000002 3.333333 -6.666675
v 3.809523 -0.000002 -40.000011
v 0.000002 3.333333 -20.000010
v -3.809520 6.666668 -20.000010
v 3.809528 6.666664 -20.000010
v 3.809520 -6.666668 -66.666679
v 11.428572 -0.000007 -40.000011
v 7.619051 3.333328 -40.000011
v 7.619046 -3.333338 -40.000011
v -7.619052 -6.666661 -80.000015
v -0.000002 -3.333333 -66.666679
v -0.000007 -9.999999 -66.666679
v -3.809528 -6.666664 -66.666679
v 1.904763 0.833332 -1.666674
v -0.952382 -1.666666 -1.666674
v -3.809524 0.833336 -1.666674
v -0.952379 3.333334 -1.666674
v -0.952377 5.833333 -13.333343
v -4.761904 2.500002 -13.333343
v -8.571425 5.833339 -13.333343
v -4.761899 9.166669 -13.333343
v -0.952377 5.833333 -6.666675
v -6.666663 5.833337 -6.666675
v -6.666667 0.833338 -6.666675
v -0.952380 0.833334 -6.666675
v 9.523813 4.999993 -28.333344
v 5.714287 1.666663 -28.333344
v 1.904764 4.999998 -28.333344
v 5.714291 8.333328 -28.333344
v 2.857149 9.166664 -20.000010
v -2.857137 9.166668 -20.000010
v -2.857141 4.166668 -20.000010
v 2.857146 4.166664 -20.000010
v 9.523808 -5.000006 -53.333347
v 5.714281 -8.333336 -53.333347
v 1.904758 -5.000001 -53.333347
v 5.714285 -1.666669 -53.333347
v 4.761907 2.499997 -40.000011
v 4.761904 -2.500003 -40.000011
v 10.476190 -2.500007 -40.000011
v 10.476193 2.499993 -40.000011
v -2.857147 -6.666664 -76.666687
v -5.714292 -9.166662 -76.666687
v -8.571434 -6.666660 -76.666687
v -5.714289 -4.166662 -76.666687
v 2.857137 -9.166668 -66.666679
v 2.857141 -4.166668 -66.666679
v -2.857146 -4.166664 -66.666679
v -2.857149 -9.166664 -66.666679
v 0.423280 -0.370371 -2.962971
v -3.809524 -0.370368 -2.962971
v 0.423283 3.333333 -2.962971
v -3.809522 3.333335 -2.962971
v -1.904757 8.333333 -13.333343
v -1.904760 3.333334 -13.333343
v -7.619046 3.333338 -13.333343
v -7.619043 8.333337 -13.333343
v 8.571434 7.499993 -28.333344
v 8.571431 2.499994 -28.333344
v 2.857144 2.499998 -28.333344
v 2.857148 7.499997 -28.333344
v 8.571427 -2.500005 -53.333347
v 8.571424 -7.500005 -53.333347
v 2.857137 -7.500001 -53.333347
v 2.857141 -2.500001 -53.333347
v -2.116405 -4.814811 -74.074097
v -2.116408 -8.518518 -74.074097
v -6.349214 -8.518516 -74.074097
v -6.349211 -4.814808 -74.074097
vn 0.6576 -0.7515 -0.0537
vn 0.5398 0.6169 0.5728
vn -0.3736 0.4270 0.8235
vn -0.5398 -0.6169 0.5728
vn 0.2667 0.9143 0.3048
vn 0.2800 0.9600 0.0000
vn 0.3883 0.8242 0.4121
vn -0.3764 -0.9219 -0.0922
vn -0.2667 -0.9143 -0.3048
vn -0.6534 0.3485 0.6721
vn -0.9029 0.3439 0.2580
vn 0.7661 -0.4086 -0.4961
vn 0.9029 -0.3439 -0.2580
vn -0.8938 0.3405 -0.2919
vn -0.9345 0.3560 -0.0000
vn -0.2800 -0.9600 0.0000
vn -0.7932 0.3022 -0.5288
vn -0.7612 0.2900 -0.5800
vn 0.7932 -0.3022 0.5288
vn 0.7612 -0.2900 0.5800
vn 0.8804 -0.3354 -0.3354
vn 0.7804 -0.2973 -0.5500
vn 0.8938 -0.3405 0.2919
vn 0.9345 -0.3560 0.0000
vn 0.2630 0.9016 -0.3435
vn 0.2600 0.8913 -0.3714
vn -0.2630 -0.9016 0.3435
vn -0.2600 -0.8913 0.3714
vn 0.5330 -0.6091 -0.5873
vn -0.6583 -0.7523 0.0269
vn -0.6583 0.7523 0.0269
vn 0.5330 0.6091 -0.5873
vn 0.2723 0.9335 -0.2334
vn 0.2702 0.9263 -0.2625
vn -0.2723 -0.9335 0.2334
vn -0.2797 -0.9589 0.0479
vn -0.8804 0.3354 0.3354
vn -0.8648 0.3295 0.3789
vn 0.6163 -0.7044 0.3522
vn 0.4366 0.4990 0.7485
vn -0.3091 0.3532 0.8830
vn -0.4366 -0.4990 0.7485
vn 0.2524 0.8655 0.4327
vn -0.2787 -0.9556 -0.0956
vn -0.6737 0.2567 0.6930
vn 0.8481 -0.3231 -0.4200
vn 0.7605 -0.4056 -0.5070
vn 0.4796 -0.5482 -0.6852
vn -0.6471 -0.7396 -0.1849
vn -0.6471 0.7396 -0.1849
vn 0.4796 0.5482 -0.6852
vn 0.3628 0.8884 -0.2813
vn -0.3744 -0.9170 0.1375
vn -0.8135 0.4338 0.3874
vn -0.2791 0.9569 -0.0797
vn -0.2614 0.8962 -0.3585
vn -0.2119 0.7264 0.6538
vn -0.2600 0.8913 0.3714
vn 0.2585 -0.8864 -0.3841
vn 0.2600 -0.8913 -0.3714
vn -0.7658 -0.4713 0.4376
vn -0.9345 -0.3560 0.0000
vn 0.9292 0.3540 -0.1062
vn 0.9345 0.3560 0.0000
vn -0.9029 -0.3439 0.2580
vn 0.2791 -0.9569 0.0797
vn 0.2614 -0.8962 0.3585
vn -0.7612 -0.2900 -0.5800
vn -0.8120 -0.3093 -0.4949
vn 0.7612 0.2900 0.5800
vn 0.8120 0.3093 0.4949
vn 0.8538 0.3252 -0.4066
vn 0.7605 0.4056 -0.5070
vn 0.9029 0.3439 -0.2580
vn -0.2547 0.8731 -0.4158
vn -0.2667 0.9143 -0.3048
vn 0.2547 -0.8731 0.4158
vn 0.2667 -0.9143 0.3048
vn -0.2800 0.9600 0.0000
vn -0.3744 0.9170 0.1375
vn 0.2800 -0.9600 -0.0000
vn 0.3628 -0.8884 -0.2813
vn -0.8538 -0.3252 0.4066
vn -0.8135 -0.4338 0.3874
vn -0.2904 0.7113 0.6401
vn 0.3348 -0.8198 -0.4646
vn -0.8243 -0.3140 0.4710
vn 0.8779 0.4682 -0.1003
vn 0.7804 0.2973 -0.5500
vn -0.2797 0.9589 0.0479
vn 0.2702 -0.9263 -0.2625
vn -0.8648 -0.3295 0.3789
usemtl Material_010
s off
f 20//1 55//1 19//1
f 19//2 57//2 22//2
f 22//3 58//3 21//3
f 21//4 56//4 20//4
f 2//5 26//5 59//5
f 35//6 63//6 34//6
f 22//7 57//7 27//7
f 3//5 27//5 59//5
f 4//8 20//8 56//8
f 29//9 61//9 24//9
f 5//10 21//10 58//10
f 28//11 62//11 25//11
f 6//12 19//12 55//12
f 6//13 30//13 60//13
f 33//14 66//14 43//14
f 7//15 43//15 70//15
f 24//9 61//9 37//9
f 8//16 37//16 65//16
f 9//17 25//17 62//17
f 36//18 66//18 33//18
f 23//19 60//19 38//19
f 38//20 64//20 31//20
f 11//21 39//21 68//21
f 11//22 51//22 72//22
f 12//23 31//23 64//23
f 45//24 68//24 39//24
f 13//25 34//25 63//25
f 46//26 67//26 42//26
f 32//27 65//27 44//27
f 44//28 69//28 40//28
f 47//29 72//29 48//29
f 48//30 73//30 49//30
f 49//31 74//31 50//31
f 50//32 71//32 47//32
f 42//33 67//33 52//33
f 16//34 52//34 71//34
f 17//35 40//35 69//35
f 17//36 54//36 73//36
f 41//37 70//37 53//37
f 18//38 53//38 74//38
f 1//39 20//39 19//39
f 1//40 19//40 22//40
f 1//41 22//41 21//41
f 1//42 21//42 20//42
f 35//5 2//5 59//5
f 2//6 35//6 34//6
f 3//43 22//43 27//43
f 26//5 3//5 59//5
f 29//44 4//44 56//44
f 4//9 29//9 24//9
f 28//45 5//45 58//45
f 5//11 28//11 25//11
f 30//46 6//46 55//46
f 23//13 6//13 60//13
f 7//14 33//14 43//14
f 41//15 7//15 70//15
f 8//9 24//9 37//9
f 32//16 8//16 65//16
f 36//17 9//17 62//17
f 9//18 36//18 33//18
f 10//19 23//19 38//19
f 10//20 38//20 31//20
f 51//21 11//21 68//21
f 47//47 11//47 72//47
f 45//23 12//23 64//23
f 12//24 45//24 39//24
f 46//25 13//25 63//25
f 13//26 46//26 42//26
f 14//27 32//27 44//27
f 14//28 44//28 40//28
f 15//48 47//48 48//48
f 15//49 48//49 49//49
f 15//50 49//50 50//50
f 15//51 50//51 47//51
f 16//33 42//33 52//33
f 50//52 16//52 71//52
f 54//35 17//35 69//35
f 48//53 17//53 73//53
f 18//37 41//37 53//37
f 49//54 18//54 74//54
usemtl Material_001_002
f 36//55 62//55 26//55
f 2//56 34//56 66//56
f 3//57 28//57 58//57
f 26//58 62//58 28//58
f 4//59 30//59 55//59
f 24//60 60//60 30//60
f 29//61 56//61 21//61
f 5//62 25//62 61//62
f 6//63 27//63 57//63
f 23//64 59//64 27//64
f 7//62 44//62 65//62
f 41//65 69//65 44//65
f 8//66 38//66 60//66
f 32//67 64//67 38//67
f 9//68 37//68 61//68
f 33//69 65//69 37//69
f 35//70 59//70 23//70
f 10//71 31//71 63//71
f 52//72 67//72 39//72
f 11//73 47//73 71//73
f 46//64 63//64 31//64
f 12//74 39//74 67//74
f 43//75 66//75 34//75
f 42//76 70//76 43//76
f 45//77 64//77 32//77
f 14//78 40//78 68//78
f 16//79 53//79 70//79
f 16//80 50//80 74//80
f 51//81 68//81 40//81
f 17//82 48//82 72//82
f 54//83 69//83 41//83
f 18//84 49//84 73//84
f 2//55 36//55 26//55
f 36//56 2//56 66//56
f 22//85 3//85 58//85
f 3//58 26//58 28//58
f 20//86 4//86 55//86
f 4//60 24//60 30//60
f 5//87 29//87 21//87
f 29//62 5//62 61//62
f 19//88 6//88 57//88
f 6//64 23//64 27//64
f 33//62 7//62 65//62
f 7//65 41//65 44//65
f 24//66 8//66 60//66
f 8//67 32//67 38//67
f 25//68 9//68 61//68
f 9//69 33//69 37//69
f 10//70 35//70 23//70
f 35//71 10//71 63//71
f 11//72 52//72 39//72
f 52//89 11//89 71//89
f 12//64 46//64 31//64
f 46//74 12//74 67//74
f 13//75 43//75 34//75
f 13//76 42//76 43//76
f 14//77 45//77 32//77
f 45//78 14//78 68//78
f 42//79 16//79 70//79
f 53//90 16//90 74//90
f 17//81 51//81 40//81
f 51//91 17//91 72//91
f 18//83 54//83 41//83
f 54//92 18//92 73//92
